<svg version="1.1" xmlns="http://www.w3.org/2000/svg" width="48" height="48" viewBox="0 0 48 48"><path d="M0 0h48v48H0z" fill="#FF9090"/><path d="M13.536 17.76c0.85 0.78 1.329 1.836 1.56 2.952l0.011 0.052c0.083 0.401 0.15 0.809 0.133 1.22 0.228 -0.087 0.453 -0.178 0.674 -0.281l0.051 -0.024q0.127 -0.059 0.254 -0.119c0.228 -0.107 0.457 -0.184 0.701 -0.249l0.055 -0.015c0.203 -0.046 0.396 -0.012 0.571 0.093 0.142 0.097 0.232 0.215 0.286 0.378 0.024 0.232 -0.023 0.458 -0.159 0.651A3.072 3.072 0 0 1 17.592 22.512l-0.049 0.057C17.081 23.068 16.338 23.296 15.696 23.448l-0.05 0.012c-0.145 0.034 -0.28 0.064 -0.43 0.06l0.002 0.056c0.005 0.297 -0.039 0.58 -0.1 0.87 -0.017 0.082 -0.032 0.164 -0.047 0.247 -0.156 0.862 -0.431 1.702 -0.791 2.5l-0.028 0.063c-0.38 0.849 -0.919 1.592 -1.556 2.265l-0.052 0.055c-0.689 0.71 -1.644 1.2 -2.64 1.224 -0.79 0.006 -1.46 -0.329 -2.036 -0.847l-0.047 -0.042c-1.05 -0.99 -1.514 -2.657 -1.563 -4.058a14.616 14.616 0 0 1 -0.002 -0.216l0 -0.08a75.408 75.408 0 0 1 0 -0.168c0 -0.084 0 -0.167 -0.001 -0.251 -0.001 -0.471 0.033 -0.934 0.1 -1.4l0.013 -0.09c0.027 -0.186 0.055 -0.372 0.097 -0.555 0.014 -0.062 0.027 -0.124 0.04 -0.186C6.9 21.543 7.451 20.189 8.304 19.08l0.032 -0.043c0.162 -0.213 0.334 -0.413 0.52 -0.605l0.049 -0.051c0.226 -0.234 0.453 -0.456 0.719 -0.645l0.044 -0.031c0.376 -0.266 0.765 -0.46 1.209 -0.587l0.053 -0.015C11.843 16.851 12.84 17.143 13.536 17.76" fill="#FFF9F9"/><path d="M35.052 23.22c0.149 0.09 0.23 0.232 0.276 0.396 0.005 0.067 0.009 0.131 0.01 0.198l0.001 0.056c0.001 0.058 0.003 0.117 0.004 0.175l0.003 0.119q0.003 0.146 0.006 0.292l0.038 -0.057c0.343 -0.52 0.758 -0.925 1.389 -1.055 0.445 -0.074 0.873 -0.035 1.25 0.226 0.263 0.204 0.446 0.462 0.516 0.79 0.01 0.119 0.01 0.238 0.009 0.358q0 0.053 0 0.107 0 0.114 0 0.229c0 0.121 0 0.242 0.001 0.363 0.001 0.257 0.001 0.515 0.001 0.772 0 0.277 0.001 0.554 0.002 0.831q0.001 0.15 0 0.301c-0.031 1.05 -0.031 1.05 0.418 1.962 0.164 0.149 0.282 0.181 0.505 0.175 0.315 -0.029 0.626 -0.254 0.873 -0.442 0.242 -0.182 0.542 -0.352 0.853 -0.31 0.167 0.067 0.272 0.189 0.356 0.345 0.065 0.199 0.022 0.359 -0.068 0.543 -0.05 0.077 -0.108 0.146 -0.168 0.216l-0.036 0.047c-0.306 0.381 -0.783 0.632 -1.236 0.793l-0.063 0.023c-0.23 0.081 -0.442 0.105 -0.686 0.105 -0.049 0 -0.097 0 -0.146 0.001 -0.44 0 -0.813 -0.122 -1.145 -0.417l-0.043 -0.036c-0.267 -0.243 -0.411 -0.593 -0.533 -0.924l-0.018 -0.049c-0.082 -0.23 -0.125 -0.467 -0.166 -0.707l-0.015 -0.084c-0.075 -0.461 -0.096 -0.927 -0.092 -1.394 0.001 -0.078 0.001 -0.156 0.001 -0.234 0.001 -0.165 0.001 -0.331 0.002 -0.496 0.001 -0.193 0.002 -0.386 0.003 -0.58 0 -0.077 0.001 -0.153 0.002 -0.23q0 -0.071 0 -0.141l0.001 -0.063c0 -0.201 -0.039 -0.377 -0.125 -0.558l-0.024 -0.024c-0.198 0.004 -0.317 0.119 -0.45 0.257 -0.955 1.119 -1.76 3.234 -1.863 4.701 -0.024 0.313 -0.173 0.599 -0.4 0.814 -0.139 0.106 -0.297 0.15 -0.47 0.141 -0.175 -0.028 -0.31 -0.135 -0.417 -0.273 -0.1 -0.176 -0.151 -0.361 -0.148 -0.564l0 -0.091c0.004 -0.088 0.014 -0.171 0.028 -0.257l-0.028 0.035c-0.293 0.351 -0.703 0.572 -1.115 0.755 -0.042 0.019 -0.084 0.039 -0.126 0.059 -0.19 0.09 -0.382 0.166 -0.581 0.234l-0.046 0.016c-0.238 0.081 -0.474 0.148 -0.722 0.189 -0.041 0.007 -0.081 0.015 -0.122 0.024 -0.593 0.116 -1.255 0.042 -1.772 -0.28 -0.085 -0.059 -0.163 -0.122 -0.24 -0.192l-0.044 -0.038c-0.243 -0.22 -0.376 -0.524 -0.484 -0.826l-0.028 -0.071c-0.169 -0.457 -0.171 -0.968 -0.172 -1.449l0 -0.064c0 -0.345 0.026 -0.672 0.104 -1.008l0.027 -0.123c0.027 -0.12 0.054 -0.24 0.093 -0.357l-0.045 0.022c-0.279 0.132 -0.57 0.219 -0.868 0.295 -0.068 0.016 -0.068 0.016 -0.119 0.043 -0.018 0.045 -0.035 0.091 -0.05 0.138l-0.029 0.088 -0.015 0.047c-0.102 0.311 -0.22 0.61 -0.362 0.904l-0.045 0.096c-0.513 1.075 -1.328 2.137 -2.478 2.563 -0.109 0.038 -0.22 0.072 -0.332 0.101l-0.052 0.014c-0.181 0.042 -0.36 0.042 -0.545 0.04l-0.093 0.001c-0.191 0 -0.371 -0.016 -0.558 -0.055l-0.087 -0.018c-0.325 -0.086 -0.617 -0.242 -0.868 -0.466 -0.048 -0.041 -0.091 -0.067 -0.149 -0.092l-0.05 0.041c-0.629 0.491 -1.416 0.67 -2.206 0.575 -0.463 -0.081 -0.85 -0.34 -1.123 -0.719 -0.104 -0.159 -0.19 -0.324 -0.268 -0.496 -0.011 -0.023 -0.021 -0.045 -0.032 -0.069 -0.465 -1.093 -0.386 -2.523 -0.232 -3.675q0.006 -0.051 0.013 -0.102c0.194 -1.537 0.194 -1.537 0.539 -2.034l0.054 -0.078c0.133 -0.133 0.299 -0.236 0.491 -0.24 0.149 0.002 0.258 0.041 0.384 0.117 0.166 0.171 0.206 0.358 0.206 0.59 -0.004 0.225 -0.04 0.448 -0.073 0.671 -0.012 0.082 -0.024 0.164 -0.035 0.246q-0.023 0.162 -0.046 0.325A43.8 43.8 0 0 0 18.84 26.232l-0.013 0.106c-0.051 0.415 -0.092 0.828 -0.092 1.247l0 0.049c0 0.24 0.023 0.472 0.057 0.71l0.011 0.075c0.047 0.318 0.166 0.677 0.428 0.881 0.203 0.139 0.434 0.152 0.673 0.111 0.378 -0.098 0.65 -0.334 0.856 -0.659l0.048 -0.072c0.007 -0.071 0.007 -0.071 0.006 -0.153q0 -0.048 0.001 -0.097l0 -0.052c0.006 -0.635 0.065 -1.298 0.257 -1.906l0.014 -0.047c0.104 -0.336 0.266 -0.714 0.581 -0.903 0.158 -0.071 0.35 -0.099 0.517 -0.038 0.207 0.122 0.322 0.308 0.391 0.534 0.171 0.683 0.053 1.474 -0.11 2.147l-0.012 0.051c-0.043 0.176 -0.09 0.346 -0.164 0.512 -0.041 0.113 0.001 0.211 0.048 0.315 0.098 0.182 0.259 0.3 0.454 0.36 0.263 0.061 0.573 0.047 0.824 -0.051l0.089 -0.034c0.992 -0.393 1.542 -1.398 1.95 -2.324q0.024 -0.057 0.048 -0.114l-0.078 -0.017c-0.452 -0.1 -0.811 -0.254 -1.146 -0.583l-0.053 -0.052c-0.343 -0.36 -0.444 -0.869 -0.433 -1.35 0.017 -0.405 0.23 -0.748 0.515 -1.026 0.117 -0.101 0.244 -0.175 0.381 -0.245l0.048 -0.024c0.37 -0.18 0.835 -0.159 1.219 -0.029 0.261 0.098 0.478 0.248 0.674 0.447l0.046 0.045c0.291 0.302 0.372 0.695 0.378 1.098q0.001 0.05 0.002 0.101 0.003 0.122 0.005 0.244l0.112 -0.06 0.097 -0.052a15.096 15.096 0 0 0 0.24 -0.13l0.082 -0.045 0.074 -0.041c0.134 -0.065 0.28 -0.074 0.427 -0.056 0.055 0.021 0.103 0.045 0.154 0.075 0.038 0.025 0.038 0.025 0.086 0.021l0.039 -0.072c0.388 -0.711 0.964 -1.433 1.764 -1.69 0.463 -0.133 1.004 -0.151 1.461 0.01l0.078 0.027c0.411 0.158 0.694 0.417 0.882 0.813 0.033 0.087 0.054 0.173 0.072 0.264l0.015 0.063c0.137 0.66 -0.033 1.398 -0.395 1.96 -0.074 0.108 -0.157 0.207 -0.244 0.305l-0.044 0.053c-0.096 0.114 -0.2 0.213 -0.316 0.307l-0.067 0.055c-0.415 0.335 -0.896 0.581 -1.421 0.689l-0.056 0.013c-0.186 0.039 -0.368 0.042 -0.557 0.04a18.96 18.96 0 0 0 -0.16 0c-0.153 -0.001 -0.3 -0.004 -0.451 -0.028 -0.028 0.679 -0.028 0.679 0.264 1.272 0.319 0.257 0.784 0.319 1.178 0.284 0.636 -0.071 1.196 -0.389 1.724 -0.731 0.472 -0.303 0.472 -0.303 0.698 -0.272 0.172 0.062 0.272 0.147 0.384 0.288 0.059 -0.375 0.11 -0.75 0.156 -1.126 0.034 -0.273 0.068 -0.545 0.108 -0.818 0.04 -0.272 0.074 -0.544 0.108 -0.816 0.037 -0.298 0.075 -0.596 0.12 -0.894 0.024 -0.166 0.046 -0.333 0.065 -0.499l0.015 -0.129c0.007 -0.063 0.015 -0.126 0.022 -0.19 0.045 -0.414 0.109 -0.831 0.441 -1.116 0.175 -0.11 0.444 -0.123 0.634 -0.041" fill="#FFF9F9"/><path d="M9.312 20.136c0.083 0.041 0.094 0.143 0.123 0.227 0.237 0.66 0.569 1.277 1.053 1.789a18.264 18.264 0 0 1 0.078 0.093c0.755 0.861 1.893 1.327 3.017 1.41q0.073 0.005 0.145 0.009c0.007 0.188 -0.02 0.363 -0.052 0.548l-0.017 0.094c-0.298 1.637 -1.101 3.693 -2.514 4.677 -0.424 0.281 -0.864 0.437 -1.376 0.343 -0.286 -0.069 -0.527 -0.211 -0.744 -0.406l-0.049 -0.042c-0.159 -0.146 -0.271 -0.327 -0.383 -0.51l-0.026 -0.042c-0.224 -0.374 -0.375 -0.807 -0.478 -1.23l-0.011 -0.045c-0.085 -0.34 -0.135 -0.687 -0.181 -1.035l-0.006 -0.048c-0.04 -0.3 -0.05 -0.596 -0.049 -0.898l0 -0.07c0.001 -0.353 0.017 -0.697 0.069 -1.046 0.011 -0.075 0.02 -0.151 0.029 -0.226C8.081 22.596 8.483 20.965 9.312 20.136" fill="#FF9090"/><path d="M12.443 18.83c0.634 0.365 0.916 1.143 1.099 1.813C13.68 21.168 13.797 21.702 13.776 22.248c-0.82 -0.002 -1.589 -0.435 -2.173 -0.988 -0.43 -0.442 -0.6 -0.967 -0.591 -1.574 0.009 -0.291 0.089 -0.551 0.286 -0.772 0.328 -0.299 0.769 -0.271 1.145 -0.084" fill="#FF9090"/><path d="M31.479 24.567c0.18 0.18 0.211 0.366 0.212 0.609 -0.001 0.426 -0.164 0.761 -0.455 1.07 -0.468 0.452 -0.994 0.578 -1.626 0.567 -0.082 -0.002 -0.155 -0.006 -0.234 -0.03 0.034 -0.176 0.089 -0.335 0.156 -0.501l0.032 -0.08c0.269 -0.652 0.66 -1.34 1.339 -1.63 0.18 -0.066 0.399 -0.085 0.576 -0.006" fill="#FF9090"/><path d="M25.875 24.76c0.126 0.09 0.186 0.218 0.213 0.368 0.012 0.19 -0.001 0.367 -0.048 0.552 -0.25 0.017 -0.473 -0.031 -0.672 -0.192 -0.121 -0.123 -0.167 -0.239 -0.177 -0.409 0.013 -0.135 0.065 -0.201 0.162 -0.293 0.17 -0.113 0.344 -0.124 0.522 -0.026" fill="#FF9191"/></svg>