<?xml version="1.0" encoding="UTF-8"?>
<svg xmlns="http://www.w3.org/2000/svg" xmlns:xlink="http://www.w3.org/1999/xlink" width="50px" height="50px" viewBox="0 0 50 50" version="1.1">
<g id="surface1">
<path style=" stroke:none;fill-rule:nonzero;fill:rgb(36.078432%,55.29412%,73.725492%);fill-opacity:1;" d="M 49.914062 14.707031 C 49.914062 13.867188 49.714844 13.128906 49.304688 12.492188 C 48.90625 11.867188 48.304688 11.34375 47.5 10.929688 C 40.855469 7.523438 34.203125 4.125 27.558594 0.71875 C 25.769531 -0.203125 24.03125 -0.167969 22.253906 0.765625 C 19.609375 2.152344 6.367188 8.894531 2.417969 10.925781 C 0.792969 11.761719 0.00390625 13.042969 0.00390625 14.707031 C 0 21.554688 0.00390625 28.402344 0 35.253906 C 0 36.074219 0.195312 36.800781 0.582031 37.425781 C 0.984375 38.070312 1.59375 38.609375 2.417969 39.03125 C 6.363281 41.0625 19.609375 47.808594 22.253906 49.195312 C 24.03125 50.125 25.769531 50.160156 27.558594 49.238281 C 34.203125 45.832031 40.855469 42.4375 47.5 39.03125 C 48.324219 38.605469 48.933594 38.066406 49.335938 37.425781 C 49.722656 36.796875 49.917969 36.070312 49.917969 35.25 C 49.917969 35.25 49.917969 21.554688 49.914062 14.707031 "/>
<path style=" stroke:none;fill-rule:nonzero;fill:rgb(10.196079%,27.450982%,45.490196%);fill-opacity:1;" d="M 25.035156 24.914062 L 0.582031 37.425781 C 0.984375 38.070312 1.59375 38.609375 2.417969 39.03125 C 6.363281 41.0625 19.609375 47.808594 22.253906 49.195312 C 24.03125 50.125 25.769531 50.160156 27.558594 49.238281 C 34.203125 45.832031 40.855469 42.4375 47.5 39.03125 C 48.324219 38.605469 48.933594 38.066406 49.335938 37.425781 L 25.035156 24.914062 "/>
<path style=" stroke:none;fill-rule:nonzero;fill:rgb(10.196079%,27.450982%,45.490196%);fill-opacity:1;" d="M 17.792969 28.617188 C 19.214844 30.828125 21.890625 32.316406 24.960938 32.316406 C 28.046875 32.316406 30.738281 30.808594 32.152344 28.578125 L 25.035156 24.914062 L 17.792969 28.617188 "/>
<path style=" stroke:none;fill-rule:nonzero;fill:rgb(10.588235%,34.901962%,55.686277%);fill-opacity:1;" d="M 49.914062 14.707031 C 49.914062 13.867188 49.714844 13.128906 49.304688 12.492188 L 25.035156 24.914062 L 49.335938 37.425781 C 49.722656 36.796875 49.917969 36.070312 49.917969 35.25 C 49.917969 35.25 49.917969 21.554688 49.914062 14.707031 "/>
<path style=" stroke:none;fill-rule:nonzero;fill:rgb(100%,100%,100%);fill-opacity:1;" d="M 48.578125 25.804688 L 46.679688 25.804688 L 46.679688 27.496094 L 44.78125 27.496094 L 44.78125 25.804688 L 42.882812 25.804688 L 42.882812 24.117188 L 44.78125 24.117188 L 44.78125 22.429688 L 46.679688 22.429688 L 46.679688 24.117188 L 48.578125 24.117188 L 48.578125 25.804688 M 41.652344 25.804688 L 39.753906 25.804688 L 39.753906 27.496094 L 37.851562 27.496094 L 37.851562 25.804688 L 35.953125 25.804688 L 35.953125 24.117188 L 37.851562 24.117188 L 37.851562 22.429688 L 39.753906 22.429688 L 39.753906 24.117188 L 41.652344 24.117188 L 41.652344 25.804688 "/>
<path style=" stroke:none;fill-rule:nonzero;fill:rgb(100%,100%,100%);fill-opacity:1;" d="M 32.152344 28.578125 C 30.738281 30.808594 28.046875 32.316406 24.960938 32.316406 C 21.890625 32.316406 19.214844 30.828125 17.792969 28.617188 C 17.078125 27.511719 16.703125 26.257812 16.703125 24.980469 C 16.703125 20.925781 20.398438 17.640625 24.960938 17.640625 C 28.007812 17.640625 30.667969 19.113281 32.097656 21.296875 L 39.3125 17.605469 C 36.445312 13.207031 31.089844 10.246094 24.960938 10.246094 C 15.804688 10.246094 8.382812 16.84375 8.382812 24.980469 C 8.382812 27.648438 9.179688 30.152344 10.578125 32.3125 C 13.4375 36.734375 18.808594 39.710938 24.960938 39.710938 C 31.121094 39.710938 36.5 36.722656 39.355469 32.285156 L 32.152344 28.578125 "/>
</g>
</svg>
