<?xml version="1.0" encoding="UTF-8"?>
<svg version="1.1" xmlns="http://www.w3.org/2000/svg" width="2000" height="2000">
<path d="M0 0 C660 0 1320 0 2000 0 C2000 660 2000 1320 2000 2000 C1340 2000 680 2000 0 2000 C0 1340 0 680 0 0 Z " fill="#FF9090" transform="translate(0,0)"/>
<path d="M0 0 C35.39760641 32.50940929 55.38986703 76.50167221 65 123 C65.15065918 123.71897461 65.30131836 124.43794922 65.45654297 125.17871094 C68.92185791 141.90528414 71.71988544 158.88272396 71 176 C80.4920951 172.39000514 89.86223925 168.57300291 99.078125 164.3046875 C99.78485855 163.97829788 100.4915921 163.65190826 101.21974182 163.31562805 C104.74878064 161.68303708 108.27023783 160.03629501 111.78295898 158.36889648 C121.29725903 153.91058916 130.84536041 150.68327044 141 148 C141.76304443 147.79576416 142.52608887 147.59152832 143.31225586 147.38110352 C151.75643695 145.47435295 159.79685126 146.87811076 167.08984375 151.25390625 C172.99023638 155.2863906 176.73828307 160.21484921 179 167 C180.01329301 176.68442337 178.05571931 186.10421166 172.375 194.125 C171.27735929 195.4399953 170.14973117 196.73029688 169 198 C168.32453125 198.77859375 167.6490625 199.5571875 166.953125 200.359375 C147.70077659 221.16224811 116.76820285 230.65922241 90 237 C89.3090625 237.16516113 88.618125 237.33032227 87.90625 237.50048828 C81.84838892 238.93065226 76.24911037 240.17747847 70 240 C70.02320313 240.76441406 70.04640625 241.52882813 70.0703125 242.31640625 C70.27852917 254.67555264 68.43172664 266.49054303 65.90234375 278.55859375 C65.1917252 281.97899505 64.55766576 285.40902715 63.94140625 288.84765625 C57.44420587 324.75885733 46.00142043 359.75345361 31 393 C30.42451416 394.29333252 30.42451416 394.29333252 29.83740234 395.61279297 C14.02210032 431.00362983 -8.44551058 461.9551082 -35 490 C-35.70898438 490.75152344 -36.41796875 491.50304688 -37.1484375 492.27734375 C-65.84776744 521.85522461 -105.64904796 542.2676974 -147.15136719 543.29614258 C-180.06177527 543.53161859 -208.00203934 529.57799824 -232 508 C-232.97839844 507.12988281 -232.97839844 507.12988281 -233.9765625 506.2421875 C-277.7307839 464.97635784 -297.06680163 395.54937215 -299.09928894 337.14698792 C-299.14695471 334.14445562 -299.16472558 331.1435317 -299.16796875 328.140625 C-299.17296135 326.4812088 -299.17296135 326.4812088 -299.17805481 324.78826904 C-299.18308907 322.45536714 -299.18546423 320.12245811 -299.18530273 317.78955078 C-299.18746835 314.30097865 -299.20560444 310.81273427 -299.22460938 307.32421875 C-299.27479958 287.70254558 -297.8511167 268.41944025 -295.0625 249 C-294.88702637 247.76145264 -294.71155273 246.52290527 -294.53076172 245.24682617 C-293.40925006 237.47766935 -292.22032538 229.7658594 -290.47460938 222.10888672 C-289.89340546 219.52635617 -289.3475026 216.93687663 -288.796875 214.34765625 C-276.48679439 157.63554358 -253.55418491 101.21654901 -218 55 C-217.55446777 54.4117041 -217.10893555 53.8234082 -216.64990234 53.21728516 C-209.91805593 44.32950376 -202.7450082 36.01731838 -195 28 C-194.3198584 27.29262695 -193.6397168 26.58525391 -192.93896484 25.85644531 C-183.52687949 16.11349072 -174.05903421 6.85691272 -163 -1 C-162.40123047 -1.42716309 -161.80246094 -1.85432617 -161.18554688 -2.29443359 C-145.50853734 -13.3598307 -129.29887323 -21.44328289 -110.8125 -26.75 C-110.08828857 -26.96100342 -109.36407715 -27.17200684 -108.61791992 -27.3894043 C-70.56142405 -37.86773222 -28.9981032 -25.71357762 0 0 Z " fill="#FFF9F9" transform="translate(564,740)"/>
<path d="M0 0 C6.20000195 3.75193251 9.58469042 9.68409895 11.5 16.5 C11.72732277 19.27626203 11.87039097 21.96483829 11.9140625 24.7421875 C11.94311172 25.89474533 11.94311172 25.89474533 11.9727478 27.07058716 C12.03214117 29.50528138 12.07876628 31.94002393 12.125 34.375 C12.16321693 36.03387386 12.20227079 37.69272867 12.2421875 39.3515625 C12.33780907 43.40088542 12.42198701 47.45030113 12.5 51.5 C13.01804199 50.70988525 13.53608398 49.91977051 14.06982422 49.10571289 C28.37923092 27.43297229 45.644829 10.56596324 71.9296875 5.1640625 C90.48300272 2.06767026 108.29191017 3.72383269 124.0078125 14.56640625 C134.95771401 23.06201949 142.6061071 33.82205356 145.5 47.5 C145.91838537 52.46841232 145.90804189 57.42481542 145.88476562 62.40698242 C145.88887902 63.88836584 145.89434441 65.36974603 145.90104675 66.85112 C145.91271444 70.02562252 145.91527632 73.19995146 145.91069031 76.37447166 C145.90382574 81.41821864 145.91984693 86.46174179 145.93908691 91.50544739 C145.97684079 102.23278624 145.98969903 112.96010497 146 123.6875 C146.01111663 135.22892296 146.02689759 146.77024057 146.07071257 158.31159288 C146.08588536 162.49234229 146.09505914 166.67291214 146.08930969 170.85368919 C144.79057596 214.61641331 144.79057596 214.61641331 163.515625 252.58984375 C170.36122781 258.78891741 175.28245501 260.14998046 184.5625 259.8671875 C197.68247109 258.64369813 210.65051043 249.28403258 220.9375 241.4375 C231.03492292 233.86443281 243.52511815 226.78302315 256.5 228.5 C263.46693921 231.30126499 267.81890953 236.36969361 271.3125 242.875 C274.02541327 251.15652473 272.22609838 257.82862098 268.5 265.5 C266.39934431 268.72377854 264.01992952 271.59777348 261.5 274.5 C260.99984375 275.14324219 260.4996875 275.78648437 259.984375 276.44921875 C247.24113774 292.31390554 227.34001784 302.79687308 208.5 309.5 C207.63632813 309.81582031 206.77265625 310.13164063 205.8828125 310.45703125 C196.28405843 313.82821996 187.45094475 314.84860675 177.29052734 314.81567383 C175.26734786 314.81252698 173.24565466 314.83599761 171.22265625 314.86132812 C152.89005907 314.87030589 137.34196101 309.78230343 123.5 297.5 C122.61634766 296.75556641 122.61634766 296.75556641 121.71484375 295.99609375 C110.58830806 285.88336541 104.60182044 271.29909858 99.5 257.5 C99.25266113 256.83226562 99.00532227 256.16453125 98.75048828 255.4765625 C95.32821752 245.90104403 93.53982837 235.99941807 91.8125 226 C91.60987549 224.8452417 91.40725098 223.6904834 91.19848633 222.50073242 C88.06930281 203.28047005 87.19166816 183.8730099 87.34967041 164.42704773 C87.37588555 161.17126894 87.38839395 157.91565822 87.39794922 154.65979004 C87.42042965 147.77311547 87.45903065 140.88658603 87.5 134 C87.54746378 125.95028202 87.58803697 117.90064017 87.61187744 109.85081482 C87.62473474 106.65958897 87.64971741 103.46861123 87.67529297 100.27746582 C87.68255884 98.31714078 87.6892622 96.35681354 87.6953125 94.39648438 C87.70564514 93.52369339 87.71597778 92.6509024 87.72662354 91.75166321 C87.72805313 83.37560123 86.11823433 76.05109774 82.5 68.5 C82.17 68.17 81.84 67.84 81.5 67.5 C73.25103438 67.66834624 68.27183061 72.45988688 62.75 78.1875 C22.96521793 124.82367311 -10.57696403 212.93559746 -14.85498047 274.08129883 C-15.84708379 287.10370892 -22.04909283 299.0347196 -31.52734375 307.9921875 C-37.30303194 312.40687194 -43.90356891 314.22905221 -51.12109375 313.87890625 C-58.4313633 312.71454476 -64.05033899 308.26304695 -68.5 302.5 C-72.67719858 295.14760997 -74.78363553 287.45992684 -74.6875 279 C-74.68105469 277.7521875 -74.67460938 276.504375 -74.66796875 275.21875 C-74.50272196 271.560263 -74.08154039 268.11020277 -73.5 264.5 C-74.08394531 265.22703125 -74.08394531 265.22703125 -74.6796875 265.96875 C-86.87705913 280.58311232 -103.98717324 289.81461633 -121.14648438 297.43603516 C-122.91185015 298.23411234 -124.66673916 299.05543192 -126.41601562 299.88818359 C-134.33503745 303.63999427 -142.33637596 306.78789441 -150.625 309.625 C-151.252854 309.84099854 -151.88070801 310.05699707 -152.52758789 310.27954102 C-162.42500394 313.66810537 -172.27265646 316.4523471 -182.59667969 318.17382812 C-184.29352149 318.46461579 -185.98003327 318.81427867 -187.6640625 319.171875 C-212.37907118 323.99749675 -239.9569791 320.90234019 -261.5 307.5 C-265.05357531 305.03693987 -268.30772117 302.41235886 -271.5 299.5 C-272.1084375 298.98308594 -272.716875 298.46617187 -273.34375 297.93359375 C-283.45000587 288.76905718 -289.01123368 276.08506876 -293.5 263.5 C-293.87898438 262.52804687 -294.25796875 261.55609375 -294.6484375 260.5546875 C-301.6972192 241.52827674 -301.75525679 220.22661113 -301.8125 200.1875 C-301.81511841 199.30593231 -301.81773682 198.42436462 -301.82043457 197.51608276 C-301.82498898 183.15684646 -300.73736575 169.52767271 -297.5 155.5 C-297.12601816 153.79433306 -296.75231519 152.08860495 -296.37890625 150.3828125 C-295.25451872 145.37017135 -294.12582016 140.37746047 -292.5 135.5 C-293.12003906 135.80292969 -293.74007813 136.10585937 -294.37890625 136.41796875 C-306.01491819 141.92263233 -318.11726578 145.53303328 -330.55078125 148.703125 C-333.4043667 149.3695063 -333.4043667 149.3695063 -335.5 150.5 C-336.267497 152.3825645 -336.93899356 154.30451445 -337.56640625 156.23828125 C-337.9648877 157.44137939 -338.36336914 158.64447754 -338.77392578 159.8840332 C-338.98374084 160.52506989 -339.19355591 161.16610657 -339.409729 161.8265686 C-343.66545524 174.77380493 -348.55905229 187.22630214 -354.5 199.5 C-355.12801126 200.83444391 -355.75562955 202.16907284 -356.3828125 203.50390625 C-377.75970156 248.28286333 -411.69901634 292.52589991 -459.65283203 310.29785156 C-464.21492331 311.88366667 -468.81659755 313.31595509 -473.5 314.5 C-474.21704102 314.68691406 -474.93408203 314.87382813 -475.67285156 315.06640625 C-483.21682809 316.81951822 -490.66065159 316.79614765 -498.375 316.75 C-500.30279297 316.76160156 -500.30279297 316.76160156 -502.26953125 316.7734375 C-510.2164394 316.75730165 -517.71921202 316.11591833 -525.5 314.5 C-527.30017578 314.12681641 -527.30017578 314.12681641 -529.13671875 313.74609375 C-542.69293061 310.15309009 -554.82516952 303.67210186 -565.30078125 294.34765625 C-567.31132608 292.6585129 -569.10621012 291.54625599 -571.5 290.5 C-572.53833984 291.3353125 -572.53833984 291.3353125 -573.59765625 292.1875 C-599.80319721 312.62713142 -632.61445332 320.10762273 -665.53369141 316.13378906 C-684.8073543 312.74725688 -700.93853539 301.98040356 -712.3125 286.1875 C-716.6440723 279.5687322 -720.23711674 272.69971219 -723.5 265.5 C-723.93957031 264.55640625 -724.37914062 263.6128125 -724.83203125 262.640625 C-744.22157371 217.09058875 -740.92701312 157.52855934 -734.5 109.5 C-734.32019102 108.08233285 -734.14152333 106.66452058 -733.96386719 105.24658203 C-725.88849281 41.19089049 -725.88849281 41.19089049 -711.5 20.5 C-710.7575 19.4275 -710.015 18.355 -709.25 17.25 C-703.70645 11.70645 -696.77865936 7.40006894 -688.8125 7.25 C-682.60851072 7.32234973 -678.07692328 8.94186034 -672.8125 12.125 C-665.87872753 19.24617172 -664.24828064 27.05313081 -664.230896 36.71472168 C-664.37756164 46.10186929 -665.91297803 55.38018717 -667.26303101 64.65371704 C-667.75964242 68.06625938 -668.24346915 71.48040477 -668.72387695 74.89526367 C-669.35931901 79.40905415 -669.99842018 83.92229497 -670.64111328 88.43505859 C-672.39381609 100.77377088 -674.00030407 113.12789871 -675.5 125.5 C-675.68353601 126.97528787 -675.86730261 128.45054706 -676.05126953 129.92578125 C-678.19316574 147.23805068 -679.87795458 164.41613491 -679.875 181.875 C-679.87681274 182.55535309 -679.87862549 183.23570618 -679.88049316 183.93667603 C-679.87743983 193.94228647 -678.92255672 203.61450649 -677.5 213.5 C-677.3551416 214.52665771 -677.2102832 215.55331543 -677.06103516 216.61108398 C-675.08924322 229.88137258 -670.14091888 244.80999937 -659.2265625 253.3203125 C-650.75160861 259.11089186 -641.12574947 259.64650738 -631.1875 257.9375 C-615.42250715 253.86911475 -604.0831853 244.00876323 -595.5 230.5 C-594.84 229.51 -594.18 228.52 -593.5 227.5 C-593.21113157 224.53220973 -593.21113157 224.53220973 -593.26171875 221.10546875 C-593.25027683 219.76252129 -593.23751683 218.41958459 -593.22363281 217.07666016 C-593.21867798 216.36310364 -593.21372314 215.64954712 -593.20861816 214.91436768 C-592.95766453 188.45181425 -590.48194515 160.84362456 -582.5 135.5 C-582.30438477 134.85820801 -582.10876953 134.21641602 -581.90722656 133.55517578 C-577.5701631 119.55172878 -570.81254556 103.80690633 -557.6875 95.9375 C-551.08748786 92.96102394 -543.08602189 91.80119123 -536.1484375 94.37109375 C-527.50451797 99.46066027 -522.74563987 107.21175565 -519.84765625 116.6171875 C-512.70301851 145.09143717 -517.65499309 178.04670887 -524.4375 206.0625 C-524.60644775 206.7635083 -524.77539551 207.4645166 -524.94946289 208.18676758 C-526.73443894 215.5050832 -528.67923412 222.60786085 -531.76782227 229.5012207 C-533.49660384 234.22063877 -531.71764655 238.30262888 -529.75 242.625 C-525.66890167 250.18960726 -518.95127513 255.1391006 -510.8203125 257.625 C-499.85917077 260.1705266 -486.94713781 259.59691679 -476.5 255.5 C-474.65535156 254.80390625 -474.65535156 254.80390625 -472.7734375 254.09375 C-431.42161753 237.70812261 -408.50729093 195.85352544 -391.51464844 157.26220703 C-390.83496644 155.67826976 -390.16589978 154.08978061 -389.5 152.5 C-390.57636719 152.26925781 -391.65273437 152.03851562 -392.76171875 151.80078125 C-411.60156512 147.64665363 -426.56167974 141.20640146 -440.5 127.5 C-441.22316406 126.78972656 -441.94632813 126.07945313 -442.69140625 125.34765625 C-456.984345 110.34956303 -461.19721114 89.14466297 -460.7421875 69.08984375 C-460.04539165 52.1977185 -451.15957398 37.92315084 -439.265625 26.3203125 C-434.38339782 22.10980114 -429.09319998 19.03340052 -423.375 16.125 C-422.38971313 15.62383667 -422.38971313 15.62383667 -421.38452148 15.11254883 C-405.95644508 7.62683922 -386.59672532 8.49244721 -370.58984375 13.890625 C-359.71582777 17.97509888 -350.66241501 24.23482077 -342.5 32.5 C-341.86578125 33.11230469 -341.2315625 33.72460938 -340.578125 34.35546875 C-328.44042391 46.94967629 -325.0906264 63.29735235 -324.8125 80.125 C-324.77924938 81.52476995 -324.74475287 82.92451088 -324.70898438 84.32421875 C-324.62711223 87.71606486 -324.55776212 91.10767211 -324.5 94.5 C-322.94176997 93.67023712 -321.38359889 92.84036341 -319.82568359 92.01000977 C-318.47355601 91.28967306 -317.12101047 90.57012038 -315.76806641 89.85131836 C-312.42661934 88.07336169 -309.0940307 86.28327839 -305.78515625 84.4453125 C-304.65980469 83.82398438 -303.53445313 83.20265625 -302.375 82.5625 C-301.36179687 81.99660156 -300.34859375 81.43070313 -299.3046875 80.84765625 C-293.70061984 78.15489393 -287.631128 77.7836163 -281.5 78.5 C-279.21105247 79.36926863 -277.19982417 80.38207098 -275.09375 81.625 C-273.5108319 82.6604196 -273.5108319 82.6604196 -271.5 82.5 C-270.96632813 81.50742188 -270.43265625 80.51484375 -269.8828125 79.4921875 C-253.73570833 49.87447733 -229.72055456 19.76856724 -196.3671875 9.0859375 C-177.09306454 3.52677097 -154.5300077 2.81437158 -135.5 9.5 C-134.42878906 9.87382813 -133.35757813 10.24765625 -132.25390625 10.6328125 C-115.11475171 17.2264745 -103.34402533 27.99794671 -95.5 44.5 C-94.14113989 48.13009773 -93.2389795 51.699534 -92.5 55.5 C-92.29761719 56.36109375 -92.09523438 57.2221875 -91.88671875 58.109375 C-86.17881935 85.60048229 -93.26227074 116.36407655 -108.33398438 139.78222656 C-111.40143913 144.30119885 -114.88024591 148.42027716 -118.5 152.5 C-119.10714844 153.22703125 -119.71429687 153.9540625 -120.33984375 154.703125 C-124.35027443 159.46835329 -128.67733548 163.56593363 -133.5 167.5 C-134.42425781 168.26183594 -135.34851562 169.02367187 -136.30078125 169.80859375 C-153.60360596 183.77005014 -173.63608994 194.02196338 -195.5 198.5 C-196.27496826 198.67845459 -197.04993652 198.85690918 -197.84838867 199.04077148 C-205.57723431 200.67793134 -213.18645881 200.77329483 -221.04443359 200.70581055 C-223.26020729 200.68741526 -225.47556362 200.68530257 -227.69140625 200.68554688 C-234.05841815 200.6636896 -240.21019294 200.51603796 -246.5 199.5 C-247.65753023 227.80114652 -247.65753023 227.80114652 -235.5 252.5 C-222.21814338 263.2078534 -202.82721562 265.77360456 -186.40722656 264.31396484 C-159.9232356 261.35993496 -136.56116504 248.09816912 -114.57568359 233.83496094 C-94.92914114 221.19942881 -94.92914114 221.19942881 -85.5 222.5 C-78.33408942 225.07149901 -74.17992179 228.63229099 -69.5 234.5 C-67.06201995 218.8836935 -64.926022 203.24891415 -63 187.5625 C-61.60381347 176.19148813 -60.1688324 164.83500136 -58.5 153.5 C-56.83518002 142.18548416 -55.39656582 130.85000239 -54 119.5 C-52.46999209 107.06550301 -50.86385939 94.6531039 -49.01733398 82.26074219 C-48.00110399 75.33599808 -47.12053473 68.40498676 -46.31640625 61.453125 C-46.10626507 59.66664957 -45.89597783 57.88019132 -45.68554688 56.09375 C-45.37596907 53.46245798 -45.0713281 50.83118432 -44.78491211 48.19726562 C-42.91024027 30.95905904 -40.22589951 13.58036943 -26.40625 1.69140625 C-19.09761043 -2.87649348 -7.8852696 -3.44029137 0 0 Z " fill="#FFF9F9" transform="translate(1460.5,967.5)"/>
<path d="M0 0 C3.45369752 1.72684876 3.91845429 5.94951071 5.125 9.4375 C14.9953119 36.92523114 28.83247602 62.64847265 49 84 C50.08756342 85.28810702 51.17101913 86.57969534 52.25 87.875 C83.72581068 123.75453648 131.13403511 143.1615436 177.9375 146.625 C179.95803202 146.75477947 181.9787661 146.88165349 184 147 C184.29402719 154.82112323 183.18499727 162.12258954 181.8125 169.8125 C181.58183838 171.10857178 181.35117676 172.40464355 181.11352539 173.73999023 C168.7111617 241.93393605 135.22151825 327.60236228 76.3515625 368.62988281 C58.69876121 380.3487188 40.3323017 386.85322655 19 382.9375 C7.0846848 380.07889299 -2.95912616 374.15264764 -12 366 C-12.67289062 365.41992188 -13.34578125 364.83984375 -14.0390625 364.2421875 C-20.6550176 358.15340014 -25.33984567 350.61737639 -30 343 C-30.35594238 342.41895508 -30.71188477 341.83791016 -31.07861328 341.23925781 C-40.42293208 325.64897604 -46.68600098 307.60356946 -51 290 C-51.23662354 289.06486572 -51.23662354 289.06486572 -51.47802734 288.11083984 C-55.03096491 273.93016483 -57.1138711 259.48426622 -59 245 C-59.08933807 244.3395871 -59.17867615 243.67917419 -59.27072144 242.99874878 C-60.93847744 230.50231072 -61.36106325 218.16152492 -61.3125 205.5625 C-61.31100952 204.60022491 -61.30951904 203.63794983 -61.3079834 202.64651489 C-61.26725001 187.95923976 -60.60630676 173.60949484 -58.44433594 159.06152344 C-57.98884553 155.92314445 -57.60280922 152.78160502 -57.2265625 149.6328125 C-51.30912644 102.51536004 -34.53013844 34.53013844 0 0 Z " fill="#FF9090" transform="translate(388,839)"/>
<path d="M0 0 C26.43304554 15.22692342 38.14753086 47.6329623 45.79931641 75.52978516 C51.55306868 97.4514709 56.43164842 119.67868772 55.5625 142.4375 C21.38426547 142.34895535 -10.63450181 124.29729497 -35 101.25 C-52.89877863 82.83707333 -59.98259586 60.96351057 -59.64453125 35.6484375 C-59.2888679 23.51224393 -55.91610214 12.70581888 -47.70703125 3.49609375 C-34.04301522 -8.97974698 -15.65099948 -7.78141242 0 0 Z " fill="#FF9090" transform="translate(518.4375,784.5625)"/>
<path d="M0 0 C7.48571727 7.48571727 8.78940109 15.23550309 8.8125 25.375 C8.7893015 43.11411754 1.96846489 57.09331682 -10.1328125 69.96875 C-29.63756951 88.80092918 -51.54436504 94.0364233 -77.890625 93.61328125 C-81.30788047 93.54475048 -84.34170389 93.34524232 -87.625 92.375 C-86.22398829 85.05014527 -83.91718469 78.40628099 -81.125 71.5 C-80.46177734 69.85777466 -80.46177734 69.85777466 -79.78515625 68.18237305 C-68.5957561 40.99537974 -52.26964283 12.36556121 -24 0.25 C-16.48632524 -2.51819596 -7.38240119 -3.30935226 0 0 Z " fill="#FF9090" transform="translate(1311.625,1023.625)"/>
<path d="M0 0 C5.23042001 3.73601429 7.75504751 9.10373368 8.859375 15.328125 C9.34742214 23.25110306 8.8045305 30.63434028 6.859375 38.328125 C-3.55316995 39.05317649 -12.86924222 37.0240063 -21.140625 30.328125 C-26.16747147 25.18703202 -28.09554407 20.37989878 -28.515625 13.265625 C-27.98009085 7.64251645 -25.78893611 4.88968289 -21.765625 1.078125 C-14.67280854 -3.65041931 -7.43773347 -4.09363625 0 0 Z " fill="#FF9191" transform="translate(1078.140625,1031.671875)"/>
</svg>
