<?xml version="1.0" encoding="UTF-8"?>
<svg xmlns="http://www.w3.org/2000/svg" xmlns:xlink="http://www.w3.org/1999/xlink" width="50px" height="50px" viewBox="0 0 50 50" version="1.1">
<g id="surface1">
<path style=" stroke:none;fill-rule:nonzero;fill:rgb(0%,0%,49.019608%);fill-opacity:1;" d="M 44.113281 25.003906 C 44.113281 14.453125 35.546875 5.890625 24.996094 5.890625 C 14.445312 5.890625 5.882812 14.453125 5.882812 25.003906 C 5.882812 35.554688 14.445312 44.121094 24.996094 44.121094 C 35.546875 44.121094 44.109375 35.554688 44.109375 25.003906 "/>
<path style=" stroke:none;fill-rule:nonzero;fill:rgb(100%,100%,100%);fill-opacity:1;" d="M 38.515625 17.085938 C 38.515625 13.996094 36.007812 11.484375 32.914062 11.484375 C 29.824219 11.484375 27.316406 13.996094 27.316406 17.085938 C 27.316406 20.175781 29.824219 22.683594 32.914062 22.683594 C 36.007812 22.683594 38.515625 20.175781 38.515625 17.085938 "/>
<path style=" stroke:none;fill-rule:nonzero;fill:rgb(0%,0%,49.019608%);fill-opacity:1;" d="M 49.710938 5.890625 C 49.710938 2.800781 47.203125 0.289062 44.109375 0.289062 C 41.019531 0.289062 38.511719 2.800781 38.511719 5.890625 C 38.511719 8.980469 41.019531 11.488281 44.113281 11.488281 C 47.203125 11.488281 49.710938 8.980469 49.710938 5.890625 "/>
<path style=" stroke:none;fill-rule:nonzero;fill:rgb(100%,100%,100%);fill-opacity:1;" d="M 11.960938 22.21875 L 13.632812 22.21875 L 13.632812 33.085938 L 19.824219 33.085938 L 19.824219 34.554688 L 11.960938 34.554688 L 11.960938 22.214844 M 22.839844 25.5625 L 22.839844 31.535156 C 22.839844 31.992188 22.910156 32.367188 23.054688 32.660156 C 23.316406 33.195312 23.804688 33.464844 24.519531 33.464844 C 25.546875 33.464844 26.242188 32.996094 26.613281 32.054688 C 26.816406 31.550781 26.917969 30.859375 26.917969 29.980469 L 26.917969 25.5625 L 28.429688 25.5625 L 28.429688 34.558594 L 27 34.558594 L 27.019531 33.230469 C 26.824219 33.574219 26.589844 33.859375 26.300781 34.097656 C 25.734375 34.566406 25.046875 34.800781 24.242188 34.800781 C 22.980469 34.800781 22.125 34.375 21.667969 33.515625 C 21.421875 33.058594 21.296875 32.441406 21.296875 31.675781 L 21.296875 25.5625 L 22.84375 25.5625 M 35.71875 29.113281 C 36.066406 29.070312 36.296875 28.921875 36.414062 28.675781 C 36.484375 28.539062 36.515625 28.347656 36.515625 28.09375 C 36.515625 27.578125 36.332031 27.203125 35.96875 26.96875 C 35.601562 26.738281 35.078125 26.621094 34.394531 26.621094 C 33.609375 26.621094 33.046875 26.832031 32.71875 27.261719 C 32.535156 27.496094 32.414062 27.847656 32.359375 28.316406 L 30.949219 28.316406 C 30.976562 27.203125 31.335938 26.429688 32.027344 25.996094 C 32.714844 25.558594 33.519531 25.34375 34.429688 25.34375 C 35.488281 25.34375 36.34375 25.542969 37.003906 25.949219 C 37.660156 26.351562 37.988281 26.976562 37.988281 27.828125 L 37.988281 33.011719 C 37.988281 33.167969 38.019531 33.296875 38.082031 33.390625 C 38.148438 33.484375 38.285156 33.535156 38.492188 33.535156 C 38.566406 33.53125 38.640625 33.527344 38.71875 33.519531 C 38.808594 33.511719 38.898438 33.5 38.984375 33.484375 L 38.984375 34.601562 C 38.75 34.667969 38.570312 34.710938 38.449219 34.726562 C 38.324219 34.742188 38.15625 34.75 37.945312 34.75 C 37.425781 34.75 37.046875 34.566406 36.8125 34.199219 C 36.6875 34 36.601562 33.722656 36.550781 33.367188 C 36.242188 33.769531 35.800781 34.117188 35.222656 34.414062 C 34.648438 34.710938 34.011719 34.859375 33.316406 34.859375 C 32.480469 34.859375 31.800781 34.609375 31.269531 34.101562 C 30.742188 33.59375 30.476562 32.960938 30.476562 32.203125 C 30.476562 31.367188 30.738281 30.722656 31.257812 30.261719 C 31.78125 29.804688 32.460938 29.523438 33.308594 29.414062 Z M 32.535156 33.199219 C 32.855469 33.449219 33.230469 33.574219 33.667969 33.574219 C 34.203125 33.574219 34.714844 33.453125 35.214844 33.203125 C 36.054688 32.792969 36.472656 32.128906 36.472656 31.199219 L 36.472656 29.984375 C 36.289062 30.101562 36.050781 30.199219 35.761719 30.277344 C 35.480469 30.351562 35.195312 30.410156 34.90625 30.445312 L 33.992188 30.5625 C 33.445312 30.636719 33.035156 30.75 32.757812 30.90625 C 32.289062 31.167969 32.054688 31.589844 32.054688 32.164062 C 32.054688 32.597656 32.214844 32.945312 32.53125 33.195312 Z M 32.535156 33.199219 "/>
<path style=" stroke:none;fill-rule:nonzero;fill:rgb(57.254905%,57.254905%,57.254905%);fill-opacity:1;" d="M 25.886719 49.984375 L 25.867188 49.414062 C 26.574219 49.386719 27.289062 49.332031 27.988281 49.246094 L 28.058594 49.816406 C 27.335938 49.902344 26.613281 49.960938 25.886719 49.984375 Z M 23.703125 49.96875 C 22.980469 49.929688 22.253906 49.863281 21.535156 49.761719 L 21.613281 49.195312 C 22.3125 49.292969 23.027344 49.359375 23.734375 49.394531 Z M 30.210938 49.457031 L 30.089844 48.894531 C 30.785156 48.75 31.472656 48.570312 32.152344 48.363281 L 32.320312 48.910156 C 31.628906 49.121094 30.917969 49.304688 30.210938 49.457031 Z M 19.390625 49.367188 C 18.679688 49.207031 17.980469 49.011719 17.285156 48.789062 L 17.464844 48.242188 C 18.140625 48.460938 18.824219 48.648438 19.515625 48.808594 L 19.386719 49.367188 Z M 34.375 48.183594 L 34.160156 47.652344 C 34.8125 47.386719 35.464844 47.089844 36.097656 46.765625 L 36.355469 47.277344 C 35.710938 47.609375 35.046875 47.914062 34.375 48.183594 Z M 15.246094 48.023438 C 14.574219 47.742188 13.917969 47.425781 13.277344 47.085938 L 13.546875 46.578125 C 14.171875 46.914062 14.820312 47.222656 15.46875 47.496094 Z M 38.253906 46.203125 L 37.949219 45.714844 C 38.550781 45.335938 39.136719 44.933594 39.703125 44.507812 L 40.046875 44.964844 C 39.46875 45.402344 38.867188 45.816406 38.253906 46.203125 Z M 11.398438 45.976562 C 10.792969 45.582031 10.195312 45.15625 9.621094 44.710938 L 9.976562 44.257812 C 10.535156 44.695312 11.117188 45.113281 11.710938 45.496094 Z M 41.730469 43.574219 L 41.347656 43.148438 C 41.875 42.675781 42.378906 42.175781 42.867188 41.65625 L 43.285156 42.046875 C 42.789062 42.574219 42.269531 43.089844 41.730469 43.574219 Z M 7.964844 43.292969 C 7.433594 42.800781 6.921875 42.277344 6.433594 41.738281 L 6.859375 41.355469 C 7.335938 41.882812 7.839844 42.390625 8.355469 42.875 Z M 44.703125 40.390625 L 44.25 40.035156 C 44.6875 39.476562 45.101562 38.898438 45.488281 38.300781 L 45.96875 38.613281 C 45.574219 39.222656 45.148438 39.816406 44.703125 40.386719 Z M 5.046875 40.058594 C 4.609375 39.480469 4.195312 38.878906 3.808594 38.265625 L 4.292969 37.960938 C 4.667969 38.558594 5.078125 39.148438 5.503906 39.714844 Z M 47.078125 36.738281 L 46.574219 36.46875 C 46.90625 35.84375 47.214844 35.195312 47.492188 34.542969 L 48.019531 34.769531 C 47.734375 35.433594 47.417969 36.097656 47.078125 36.738281 Z M 2.730469 36.371094 C 2.398438 35.722656 2.097656 35.0625 1.824219 34.386719 L 2.355469 34.171875 C 2.621094 34.828125 2.917969 35.480469 3.242188 36.109375 Z M 48.785156 32.726562 L 48.238281 32.546875 C 48.457031 31.875 48.648438 31.183594 48.804688 30.496094 L 49.363281 30.625 C 49.199219 31.328125 49.003906 32.035156 48.78125 32.726562 Z M 1.09375 32.332031 C 0.882812 31.640625 0.695312 30.929688 0.546875 30.222656 L 1.109375 30.101562 C 1.253906 30.792969 1.433594 31.488281 1.640625 32.164062 Z M 49.761719 28.476562 L 49.191406 28.398438 C 49.289062 27.695312 49.359375 26.988281 49.394531 26.277344 L 49.96875 26.308594 C 49.929688 27.03125 49.859375 27.761719 49.761719 28.476562 Z M 0.1875 28.070312 C 0.0976562 27.347656 0.0429688 26.625 0.015625 25.898438 L 0.589844 25.875 C 0.613281 26.585938 0.671875 27.300781 0.757812 28 Z M 49.414062 24.148438 C 49.386719 23.4375 49.332031 22.730469 49.246094 22.023438 L 49.8125 21.953125 C 49.902344 22.675781 49.960938 23.402344 49.984375 24.128906 Z M 0.605469 23.746094 L 0.03125 23.71875 C 0.0703125 22.992188 0.136719 22.265625 0.238281 21.546875 L 0.804688 21.625 C 0.707031 22.328125 0.640625 23.035156 0.605469 23.746094 Z M 48.894531 19.921875 C 48.746094 19.226562 48.566406 18.539062 48.359375 17.859375 L 48.910156 17.691406 C 49.121094 18.382812 49.304688 19.09375 49.453125 19.800781 L 48.894531 19.917969 Z M 1.1875 19.53125 L 0.628906 19.402344 C 0.792969 18.695312 0.988281 17.988281 1.210938 17.300781 L 1.753906 17.476562 C 1.535156 18.152344 1.347656 18.839844 1.1875 19.53125 Z M 47.648438 15.847656 C 47.382812 15.191406 47.085938 14.539062 46.765625 13.910156 L 47.277344 13.648438 C 47.605469 14.296875 47.90625 14.960938 48.179688 15.632812 Z M 2.5 15.480469 L 1.972656 15.257812 C 2.253906 14.589844 2.570312 13.925781 2.910156 13.289062 L 3.417969 13.558594 C 3.085938 14.183594 2.777344 14.828125 2.5 15.480469 Z M 4.5 11.722656 L 4.019531 11.40625 C 4.414062 10.796875 4.835938 10.207031 5.285156 9.632812 L 5.734375 9.984375 C 5.300781 10.542969 4.882812 11.128906 4.5 11.71875 Z M 7.117188 8.363281 L 6.699219 7.972656 C 7.195312 7.441406 7.714844 6.929688 8.253906 6.441406 L 8.636719 6.867188 C 8.109375 7.34375 7.601562 7.84375 7.117188 8.363281 Z M 10.277344 5.511719 L 9.933594 5.054688 C 10.511719 4.617188 11.109375 4.203125 11.726562 3.816406 L 12.03125 4.300781 C 11.429688 4.679688 10.84375 5.085938 10.277344 5.511719 Z M 38.304688 4.515625 L 38.273438 4.496094 L 38.585938 4.015625 L 38.617188 4.035156 Z M 36.4375 3.417969 C 35.8125 3.085938 35.164062 2.777344 34.511719 2.503906 L 34.734375 1.976562 C 35.40625 2.257812 36.0625 2.570312 36.703125 2.910156 Z M 13.882812 3.25 L 13.621094 2.738281 C 14.265625 2.40625 14.933594 2.101562 15.601562 1.828125 L 15.820312 2.359375 C 15.164062 2.628906 14.511719 2.925781 13.882812 3.25 Z M 32.515625 1.757812 C 31.839844 1.539062 31.148438 1.351562 30.460938 1.191406 L 30.589844 0.632812 C 31.296875 0.796875 32 0.988281 32.691406 1.210938 Z M 17.828125 1.644531 L 17.65625 1.097656 C 18.351562 0.882812 19.058594 0.699219 19.769531 0.550781 L 19.886719 1.109375 C 19.191406 1.257812 18.503906 1.4375 17.824219 1.644531 Z M 28.363281 0.804688 C 27.660156 0.707031 26.953125 0.640625 26.242188 0.605469 L 26.273438 0.03125 C 26.996094 0.0703125 27.726562 0.136719 28.445312 0.238281 Z M 21.988281 0.757812 L 21.917969 0.1875 C 22.632812 0.101562 23.367188 0.0429688 24.089844 0.015625 L 24.113281 0.589844 C 23.402344 0.617188 22.6875 0.671875 21.988281 0.757812 Z M 21.988281 0.757812 "/>
</g>
</svg>
